<?xml version="1.0" encoding="UTF-8"?>
<svg version="1.1" xmlns="http://www.w3.org/2000/svg" width="400" height="400">
<path d="M0 0 C44.55 0 89.1 0 135 0 C135 8.25 135 16.5 135 25 C99.69 25 64.38 25 28 25 C28 44.8 28 64.6 28 85 C60.67 85 93.34 85 127 85 C127 93.25 127 101.5 127 110 C94.33 110 61.66 110 28 110 C28 131.78 28 153.56 28 176 C64.96 176 101.92 176 140 176 C140 185.24 140 194.48 140 204 C93.8 204 47.6 204 0 204 C0 136.68 0 69.36 0 0 Z " fill="#64A61F" transform="translate(129,140)"/>
<path d="M0 0 C0.32596165 7.4350299 -0.83407478 13.92180553 -2.625 21.125 C-3.03214233 22.78160645 -3.03214233 22.78160645 -3.44750977 24.47167969 C-10.27702769 51.39532357 -24.24524598 76.29458091 -48.4765625 90.93359375 C-49.64972368 91.62463823 -50.8241307 92.31357373 -52 93 C-52.95648438 93.56847656 -53.91296875 94.13695313 -54.8984375 94.72265625 C-68.18938979 102.00103489 -83.98608437 105.22119911 -99.0625 105.0625 C-100.75052734 105.04896484 -100.75052734 105.04896484 -102.47265625 105.03515625 C-103.30667969 105.02355469 -104.14070313 105.01195313 -105 105 C-105 100.64765999 -102.32989909 98.5893151 -99.5625 95.5 C-98.44951159 94.23135345 -97.3375409 92.96181337 -96.2265625 91.69140625 C-95.67516602 91.06379395 -95.12376953 90.43618164 -94.55566406 89.78955078 C-92.46249682 87.38168577 -90.44557633 84.91656151 -88.4375 82.4375 C-85.11831177 78.34584615 -81.73154571 74.32040056 -78.3125 70.3125 C-74.3549843 65.66737449 -70.58398786 60.94009138 -67 56 C-67.78375 56.825 -68.5675 57.65 -69.375 58.5 C-72 61 -72 61 -74 61 C-74.24878906 61.58652344 -74.49757812 62.17304687 -74.75390625 62.77734375 C-76.17411196 65.31056333 -77.71183746 66.70985353 -79.9375 68.5625 C-82.88306043 71.03190133 -82.88306043 71.03190133 -85.62890625 73.71484375 C-87 75 -87 75 -89 75 C-89.25394531 75.59167969 -89.50789063 76.18335937 -89.76953125 76.79296875 C-91.13553212 79.2430973 -92.52936211 80.5359582 -94.6875 82.3125 C-97.37372417 84.5357677 -99.85019574 86.85325024 -102.27734375 89.3515625 C-105.87973 92.98480018 -109.75201196 96.04477081 -113.875 99.0625 C-114.92445801 99.83630005 -114.92445801 99.83630005 -115.99511719 100.62573242 C-117.99154167 102.0911191 -119.9952653 103.54601659 -122 105 C-122.95648438 105.70640625 -123.91296875 106.4128125 -124.8984375 107.140625 C-125.67445313 107.69234375 -126.45046875 108.2440625 -127.25 108.8125 C-127.89453125 109.27269531 -128.5390625 109.73289062 -129.203125 110.20703125 C-131 111 -131 111 -133.046875 110.76171875 C-135 110 -135 110 -138 108 C-136.56047553 104.51162854 -134.83604769 102.84192137 -131.8125 100.625 C-127.72507649 97.56273935 -123.8482719 94.35700314 -120 91 C-120.9738018 89.01966357 -121.93080349 87.10763901 -123.125 85.25 C-124.71092636 81.17190365 -124.65665658 77.19473139 -123.41796875 73.0546875 C-120.61184769 66.72489844 -115.80035494 61.88089781 -111 57 C-110.41734375 56.40445313 -109.8346875 55.80890625 -109.234375 55.1953125 C-90.124612 37.20458968 -63.02254682 25.89947712 -39.25 15.5 C-38.14978516 15.01658646 -38.14978516 15.01658646 -37.02734375 14.52340698 C-28.06566747 10.58720985 -19.08448799 6.70863173 -10 3.0625 C-9.1946582 2.73894531 -8.38931641 2.41539063 -7.55957031 2.08203125 C-2.26695224 0 -2.26695224 0 0 0 Z " fill="#66A720" transform="translate(268,20)"/>
</svg>
